<?xml version="1.0" encoding="UTF-8"?>
<svg version="1.1" xmlns="http://www.w3.org/2000/svg" width="212" height="328">
<path d="M0 0 C69.96 0 139.92 0 212 0 C212 108.24 212 216.48 212 328 C142.04 328 72.08 328 0 328 C0 219.76 0 111.52 0 0 Z " fill="#C1ACA2" transform="translate(0,0)"/>
<path d="M0 0 C69.96 0 139.92 0 212 0 C212 108.24 212 216.48 212 328 C142.04 328 72.08 328 0 328 C0 219.76 0 111.52 0 0 Z M3 85 C2.79375 113.895625 2.5875 142.79125 2.375 172.5625 C2.28395996 181.68720947 2.19291992 190.81191895 2.09912109 200.21313477 C2.06567731 208.39065953 2.06567731 208.39065953 2.04556274 216.56822205 C2.03624278 220.21186676 1.99876439 223.85405556 1.94424438 227.49729919 C1.87559417 232.14643981 1.85509524 236.79346698 1.86927724 241.44306743 C1.86631253 243.14816397 1.84650701 244.85333509 1.80784869 246.55799592 C1.34967184 255.65873368 1.34967184 255.65873368 5.1773262 263.51746941 C7.7185188 265.32503123 10.17627395 266.69043906 13 268 C14.19864966 268.74005069 15.38931085 269.49365339 16.5625 270.2734375 C17.7072347 270.9757522 18.85311752 271.67619813 20 272.375 C33.89562269 280.96345454 47.47979419 290.04913292 61.12359619 299.03004456 C63.93553899 300.88065874 66.74828937 302.73004384 69.56103516 304.57943726 C71.55340995 305.89039466 73.54433374 307.20353268 75.53515625 308.5168457 C78.69153972 310.59635339 81.85603464 312.66293854 85.02746582 314.71942139 C86.39637772 315.60812553 87.76335204 316.49981853 89.12878418 317.39385986 C91.27453016 318.79528481 93.42899001 320.18229975 95.5859375 321.56640625 C96.23938141 321.99614243 96.89282532 322.4258786 97.56607056 322.86863708 C101.32478765 325.25692847 104.42298015 326.9030225 109 327 C111.33842959 326.05322048 111.33842959 326.05322048 113.3984375 324.38671875 C114.19838135 323.80374023 114.9983252 323.22076172 115.82250977 322.62011719 C117.08599243 321.66347168 117.08599243 321.66347168 118.375 320.6875 C120.18130635 319.3705548 121.98992314 318.05677303 123.80078125 316.74609375 C125.13423584 315.77518799 125.13423584 315.77518799 126.49462891 314.78466797 C129.76525799 312.45487859 133.1291203 310.32918916 136.5625 308.25 C143.84400835 303.80554108 150.92085329 299.06962522 158 294.3125 C166.88621838 288.34430217 175.84001881 282.51911351 184.9375 276.875 C198.83775471 269.42094713 198.83775471 269.42094713 210 259 C210.29775555 256.81203498 210.29775555 256.81203498 210.24723816 254.3575592 C210.25143265 253.40205673 210.25562714 252.44655426 210.25994873 251.46209717 C210.25432922 250.41378723 210.24870972 249.36547729 210.24291992 248.28540039 C210.24576744 246.62513069 210.24576744 246.62513069 210.24867249 244.93132019 C210.25240086 241.23669525 210.24161497 237.54226412 210.23046875 233.84765625 C210.22927394 231.24124677 210.22882442 228.63483686 210.2290802 226.02842712 C210.22814034 220.52096185 210.21945076 215.01355122 210.20581055 209.50610352 C210.1904638 203.28989357 210.18479887 197.07374488 210.1855461 190.8575173 C210.18617774 184.76600545 210.18086236 178.67451205 210.17275429 172.58300591 C210.16967082 170.05539497 210.16762589 167.52778245 210.16686058 165.00016975 C210.1500119 138.32183689 209.51310302 111.68135715 209 85 C141.02 85 73.04 85 3 85 Z " fill="#2E293F" transform="translate(0,0)"/>
<path d="M0 0 C29.37 0 58.74 0 89 0 C90.15256366 34.57690988 90.15256366 34.57690988 90.31640625 46.95703125 C90.33744841 48.39610552 90.35867488 49.83517709 90.38006592 51.27424622 C90.44582636 55.78693654 90.50503807 60.29969722 90.5625 64.8125 C90.57734751 65.97111164 90.57734751 65.97111164 90.59249496 67.15312958 C90.71255765 76.5688688 90.82259467 85.98469412 90.92521954 95.40063858 C90.9788134 100.26411658 91.04077087 105.12740568 91.10742188 109.99072266 C91.18623382 115.81913677 91.24539737 121.64736324 91.28610229 127.47616577 C91.30355194 129.55763565 91.32778655 131.63906088 91.35916138 133.72036743 C91.40040202 136.55600206 91.41653207 139.3906693 91.42578125 142.2265625 C91.44324402 143.03873734 91.46070679 143.85091217 91.47869873 144.68769836 C91.45860603 149.92651754 90.41132728 152.80873423 87 157 C83.74133378 160.12387954 79.90499109 162.11445147 75.76171875 163.83203125 C71.18871756 165.83216588 67.1389869 168.28990623 63 171.0625 C61.5027235 172.04835835 60.00532434 173.03403042 58.5078125 174.01953125 C57.75532227 174.51791504 57.00283203 175.01629883 56.22753906 175.52978516 C52.79365875 177.79620638 49.33352357 180.02145016 45.875 182.25 C40.9979498 185.40038552 36.13108143 188.5658575 31.2734375 191.74609375 C1.85807955 211 1.85807955 211 0 211 C0 141.37 0 71.74 0 0 Z " fill="#332B40" transform="translate(106,99)"/>
<path d="M0 0 C1.58564347 -0.04755798 3.17170387 -0.08133267 4.7578125 -0.109375 C5.64098145 -0.12967773 6.52415039 -0.14998047 7.43408203 -0.17089844 C13.30821647 0.22033792 17.04832613 3.92085278 21 8 C22.99330842 9.34331654 24.99384866 10.67594012 27 12 C28.04886489 12.92943968 29.09063795 13.86694681 30.125 14.8125 C32.65374799 17.25748342 32.65374799 17.25748342 34.890625 16.79296875 C42.73867473 13.84268339 48.94843786 8.54237752 54.96875 2.85546875 C60.04001502 -1.77693679 61.05653411 0 70 0 C70 62.7 70 125.4 70 190 C49.2632638 178.94040736 49.2632638 178.94040736 48 175 C47.75390434 172.21205521 47.75390434 172.21205521 47.75949097 168.93829346 C47.75674164 167.69591415 47.75399231 166.45353485 47.75115967 165.17350769 C47.75823747 163.7995901 47.76550708 162.42567348 47.77294922 161.05175781 C47.77351345 159.60291044 47.77319654 158.15406249 47.77206421 156.70521545 C47.77149017 152.77370943 47.78325279 148.84232534 47.79721212 144.91084766 C47.8097109 140.80155365 47.81088931 136.69225687 47.81326294 132.58294678 C47.81948022 124.802165 47.83589439 117.0214394 47.85596192 109.24068236 C47.87831321 100.38224125 47.88931241 91.52379747 47.89935279 82.66533518 C47.9202604 64.44352493 47.9554412 46.22176698 48 28 C47.26394531 28.52851563 46.52789062 29.05703125 45.76953125 29.6015625 C44.30580078 30.60316406 44.30580078 30.60316406 42.8125 31.625 C41.84957031 32.29789063 40.88664062 32.97078125 39.89453125 33.6640625 C38.93933594 34.10492188 37.98414063 34.54578125 37 35 C32 33 32 33 23 26 C22.34 69.56 21.68 113.12 21 158 C1.45386992 147.57539729 1.45386992 147.57539729 -0.29919434 145.35293579 C-1.38151846 141.71906223 -1.25276795 138.10864193 -1.21289062 134.35302734 C-1.2114505 133.47812275 -1.21001038 132.60321815 -1.20852661 131.7018013 C-1.2009897 128.78805051 -1.17876761 125.87460819 -1.15625 122.9609375 C-1.14736292 120.89708748 -1.13919807 118.83323424 -1.13171387 116.76937866 C-1.10356687 110.17944531 -1.05338609 103.58977041 -1 97 C-0.98761292 95.39056267 -0.98761292 95.39056267 -0.97497559 93.74861145 C-0.85974709 78.79068988 -0.70560394 63.83331336 -0.53643799 48.87591553 C-0.47426247 43.32875539 -0.41501788 37.78156385 -0.35546875 32.234375 C-0.23971991 21.4895522 -0.12093633 10.74476558 0 0 Z " fill="#31293E" transform="translate(23,105)"/>
<path d="M0 0 C6.93 0 13.86 0 21 0 C21.33 27.72 21.66 55.44 22 84 C23.65 77.07 25.3 70.14 27 63 C28.36925098 58.36116431 29.76212139 53.78312746 31.28515625 49.19921875 C31.66812363 48.02712357 32.051091 46.85502838 32.44566345 45.64741516 C33.24231881 43.21582935 34.0430535 40.78557619 34.84790039 38.35668945 C36.07461235 34.65090974 37.28519432 30.94012449 38.49414062 27.22851562 C39.27770795 24.84344167 40.06217989 22.45866468 40.84765625 20.07421875 C41.20505386 18.97832932 41.56245148 17.88243988 41.93067932 16.75334167 C42.27461227 15.72058609 42.61854523 14.68783051 42.97290039 13.6237793 C43.41660728 12.27983345 43.41660728 12.27983345 43.86927795 10.90873718 C45.32520976 7.16341093 47.20293538 3.59412923 49 0 C55.93 0 62.86 0 70 0 C65.40302137 14.09740114 60.65989304 28.09861973 55.5 42 C51.82884136 51.92171874 48.23042101 61.86301915 44.8125 71.875 C44.42578125 72.97972656 44.0390625 74.08445312 43.640625 75.22265625 C41.23356221 82.37278743 39.56836503 87.98294531 42.1875 95.33203125 C42.785625 96.48058594 43.38375 97.62914062 44 98.8125 C44.33813721 99.463396 44.67627441 100.11429199 45.0246582 100.78491211 C48.85531847 108.00020242 53.03498693 115.02904492 57.1875 122.0625 C57.70824097 122.94489853 57.70824097 122.94489853 58.23950195 123.84512329 C62.83682418 131.65714537 62.83682418 131.65714537 68.05078125 139.05859375 C70 142 70 142 69.75146484 144.07250977 C68.64553827 146.90918629 66.82811592 147.8454843 64.3125 149.5 C63.40757812 150.098125 62.50265625 150.69625 61.5703125 151.3125 C60.72210938 151.869375 59.87390625 152.42625 59 153 C58.39929688 153.45375 57.79859375 153.9075 57.1796875 154.375 C54.84958089 156.13172959 53.53861588 157.03911887 50.57299805 156.82373047 C43.47934677 154.55273897 39.50535789 146.44613325 36.26171875 140.2421875 C35.04463092 137.79844632 33.86440081 135.33828075 32.6875 132.875 C32.07615184 131.62567391 31.46352705 130.37697169 30.84960938 129.12890625 C28.0847662 123.47714889 25.44944692 117.79508871 23 112 C23.00666183 112.75088898 23.01332367 113.50177795 23.02018738 114.27542114 C23.08040568 121.36670381 23.1260287 128.45789726 23.15543652 135.54936409 C23.17106391 139.1948046 23.19224805 142.84003307 23.22631836 146.48535156 C23.25901717 150.00613349 23.27687501 153.52671201 23.28463173 157.04763412 C23.29283732 159.03842635 23.31623998 161.02913725 23.33988953 163.01980591 C23.34011612 164.24061859 23.34034271 165.46143127 23.34057617 166.71923828 C23.34723801 167.78957306 23.35389984 168.85990784 23.36076355 169.962677 C22.85453751 174.22467072 21.32714265 177.58971106 18.37890625 180.72265625 C12.31755298 185.19371898 7.44443683 186.89815132 0 190 C0 127.3 0 64.6 0 0 Z " fill="#C3AEA4" transform="translate(119,105)"/>
<path d="M0 0 C0.33 0 0.66 0 1 0 C1 23.43 1 46.86 1 71 C-32.66 71 -66.32 71 -101 71 C-97.62506711 65.37511184 -97.62506711 65.37511184 -93.81640625 62.90625 C-92.98189941 62.35783447 -92.14739258 61.80941895 -91.28759766 61.24438477 C-90.38831543 60.66873779 -89.4890332 60.09309082 -88.5625 59.5 C-87.6245459 58.88761475 -86.6865918 58.27522949 -85.72021484 57.64428711 C-82.81958382 55.75325859 -79.91016007 53.87632011 -77 52 C-75.3234648 50.90870949 -73.64764651 49.81631656 -71.97265625 48.72265625 C-68.7043677 46.5903634 -65.4320543 44.46447791 -62.15625 42.34375 C-58.5671674 40.01912881 -54.98455496 37.68492749 -51.40625 35.34375 C-39.91459742 27.82589198 -28.3805433 20.38039675 -16.78515625 13.0234375 C-15.97908936 12.51159912 -15.17302246 11.99976074 -14.3425293 11.47241211 C-12.79654618 10.50067431 -11.24338173 9.54025734 -9.68286133 8.59204102 C-8.97025146 8.15819092 -8.2576416 7.72434082 -7.5234375 7.27734375 C-6.90001465 6.90343506 -6.2765918 6.52952637 -5.63427734 6.14428711 C-3.25616016 4.47917876 -1.67432007 2.3440481 0 0 Z " fill="#2E293F" transform="translate(211,257)"/>
<path d="M0 0 C3.49107379 1.16369126 3.85222763 1.88973538 5.6875 4.9375 C6.34298828 6.00291016 6.34298828 6.00291016 7.01171875 7.08984375 C8 9 8 9 8 11 C8.53625 11.268125 9.0725 11.53625 9.625 11.8125 C12.41666667 13.20833333 15.20833333 14.60416667 18 16 C17 19 17 19 15.14453125 20.03515625 C13.99017578 20.54369141 13.99017578 20.54369141 12.8125 21.0625 C7.74474382 23.67707484 5.74694156 27.00098299 3.19140625 31.98828125 C2.79824219 32.65214844 2.40507813 33.31601562 2 34 C1.34 34 0.68 34 0 34 C-1.2890625 32.3203125 -1.2890625 32.3203125 -2.625 30.125 C-3.07101563 29.40570313 -3.51703125 28.68640625 -3.9765625 27.9453125 C-5 26 -5 26 -5 24 C-5.515625 23.7525 -6.03125 23.505 -6.5625 23.25 C-9.77184151 21.60418384 -12.87585664 19.8023904 -16 18 C-14.83630874 14.50892621 -14.11026462 14.14777237 -11.0625 12.3125 C-10.35222656 11.87550781 -9.64195313 11.43851563 -8.91015625 10.98828125 C-7 10 -7 10 -5 10 C-4.731875 9.278125 -4.46375 8.55625 -4.1875 7.8125 C-3.01017502 5.02409874 -1.60854116 2.55904276 0 0 Z " fill="#BBA8A0" transform="translate(105,6)"/>
<path d="M0 0 C1.875 0.625 1.875 0.625 4 2 C4.268125 2.969375 4.53625 3.93875 4.8125 4.9375 C5.65659975 8.01563871 5.65659975 8.01563871 7.67578125 9.05859375 C9.41816763 9.78837081 11.20789611 10.40263204 13 11 C12.67 11.99 12.34 12.98 12 14 C10.88625 14.4125 9.7725 14.825 8.625 15.25 C6.28996733 16.13702473 5.24161538 16.62629039 3.87109375 18.74609375 C3.15632062 20.46223986 2.56780437 22.22978638 2 24 C1.34 24 0.68 24 0 24 C-0.515625 22.9275 -1.03125 21.855 -1.5625 20.75 C-3.93355373 16.53003795 -6.69743642 15.06854018 -11 13 C-9.73477185 9.20431555 -8.10554476 8.96881418 -4.72265625 7.18359375 C-2.05963711 5.35390032 -1.13729645 2.94359081 0 0 Z " fill="#B9A7A2" transform="translate(14,41)"/>
<path d="M0 0 C3.79568445 1.26522815 4.03118582 2.89445524 5.81640625 6.27734375 C7.64609968 8.94036289 10.05640919 9.86270355 13 11 C12.67 11.99 12.34 12.98 12 14 C10.88625 14.4125 9.7725 14.825 8.625 15.25 C6.28996733 16.13702473 5.24161538 16.62629039 3.87109375 18.74609375 C3.15632062 20.46223986 2.56780437 22.22978638 2 24 C-1 23 -1 23 -2.1875 21.125 C-3 19 -3 19 -3 16 C-5.31 15.34 -7.62 14.68 -10 14 C-10 12.68 -10 11.36 -10 10 C-7.35261084 8.5393715 -6.10551666 8 -3 8 C-2.690625 6.865625 -2.38125 5.73125 -2.0625 4.5625 C-1 1 -1 1 0 0 Z " fill="#B4A59D" transform="translate(196,41)"/>
<path d="M0 0 C3.33835457 1.11278486 3.59992783 1.55156305 5.375 4.375 C7.51569682 7.54375183 9.50514769 9.30250031 13 11 C10.80161026 13.19838974 8.59978365 15.39068739 6.375 17.5625 C3.89526499 19.95845617 3.89526499 19.95845617 2 23 C-1 22 -1 22 -2.875 19.125 C-5.03112784 15.95422376 -6.62217727 14.68891137 -10 13 C-9.3125 11.125 -9.3125 11.125 -8 9 C-7.195625 8.731875 -6.39125 8.46375 -5.5625 8.1875 C-2.61375058 6.82100636 -2.39839031 6.25230602 -1.1875 3.375 C-0.795625 2.26125 -0.40375 1.1475 0 0 Z " fill="#BCA6A0" transform="translate(153,25)"/>
<path d="M0 0 C0.99 0.33 1.98 0.66 3 1 C3.433125 2.11375 3.86625 3.2275 4.3125 4.375 C6.28187411 8.60550736 7.73132804 9.38739059 12 11 C12 11.66 12 12.32 12 13 C10.57421875 14.078125 10.57421875 14.078125 8.6875 15.25 C5.14913808 17.64949644 3.5916951 19.97394769 2 24 C-1.77883665 22.74038778 -2.09481973 21.09766586 -3.8828125 17.72265625 C-5.45740684 15.29469785 -7.4215895 14.21758274 -10 13 C-9.3125 11.125 -9.3125 11.125 -8 9 C-7.195625 8.731875 -6.39125 8.46375 -5.5625 8.1875 C-2.61375058 6.82100636 -2.39839031 6.25230602 -1.1875 3.375 C-0.795625 2.26125 -0.40375 1.1475 0 0 Z " fill="#BAA6A2" transform="translate(57,25)"/>
<path d="M0 0 C0.33 0 0.66 0 1 0 C1 25.41 1 50.82 1 77 C1.66 77 2.32 77 3 77 C2.74438677 79.3431213 2.40729228 81.67843403 2 84 C1.01 84.495 1.01 84.495 0 85 C0 56.95 0 28.9 0 0 Z " fill="#4F4552" transform="translate(140,105)"/>
<path d="M0 0 C1.32 1.32 2.64 2.64 4 4 C3.75 6.75 3.75 6.75 3 9 C2.34 9 1.68 9 1 9 C1 16.26 1 23.52 1 31 C0.67 31 0.34 31 0 31 C0 20.77 0 10.54 0 0 Z " fill="#5C4E5B" transform="translate(141,216)"/>
<path d="M0 0 C1.9375 0.625 1.9375 0.625 4 2 C4.75 5.125 4.75 5.125 5 8 C3.02 8 1.04 8 -1 8 C-1.625 5.6875 -1.625 5.6875 -2 3 C-1.34 2.01 -0.68 1.02 0 0 Z " fill="#ADA29A" transform="translate(14,41)"/>
<path d="M0 0 C0.99 0.33 1.98 0.66 3 1 C4.6875 4.5625 4.6875 4.5625 6 8 C5.01 8 4.02 8 3 8 C3 7.34 3 6.68 3 6 C1.35 6 -0.3 6 -2 6 C-2 7.32 -2 8.64 -2 10 C-2.99 9.67 -3.98 9.34 -5 9 C-3.35 6.03 -1.7 3.06 0 0 Z " fill="#AFA19F" transform="translate(105,6)"/>
<path d="M0 0 C2.31 0.33 4.62 0.66 7 1 C4.0094833 4.33557632 1.06815373 6.15083921 -3 8 C-3 7.01 -3 6.02 -3 5 C-2.01 5 -1.02 5 0 5 C0 3.35 0 1.7 0 0 Z " fill="#403243" transform="translate(154,273)"/>
</svg>
